<svg xmlns="http://www.w3.org/2000/svg" xmlns:xlink="http://www.w3.org/1999/xlink" id="Capa_1" x="0" y="0" version="1.1" viewBox="0 0 60 60" style="enable-background:new 0 0 60 60" xml:space="preserve"><g><g><path d="M7,39H5v20c0,0.6,0.4,1,1,1h17v-2H7V39z"/><path d="M7,2h36v9c0,0.6,0.4,1,1,1h9v28h2V11c0-0.1,0-0.2-0.1-0.3v-0.1c-0.1-0.1-0.1-0.2-0.2-0.3l-10-10c-0.1-0.1-0.2-0.1-0.3-0.2 h-0.1C44.2,0.1,44.1,0,44,0H6C5.4,0,5,0.4,5,1v16h2V2z M45,3.4l6.6,6.6H45V3.4z"/><rect width="2" height="2" x="10" y="5"/><rect width="14" height="2" x="10" y="9"/><rect width="14" height="2" x="10" y="13"/><rect width="2" height="2" x="14" y="5"/><rect width="2" height="2" x="18" y="5"/><path d="M34,35v-7.6l5.7-5.7c0.3-0.3,0.4-0.7,0.2-1.1C39.8,20.2,39.4,20,39,20H1c-0.6,0-1,0.4-1,1v14c0,0.6,0.4,1,1,1h32 C33.6,36,34,35.6,34,35z M32,27v7H2V22h34.6l-4.3,4.3C32.1,26.5,32,26.7,32,27z"/><path d="M59,44H22c-0.4,0-0.7,0.2-0.9,0.6c-0.2,0.4-0.1,0.8,0.1,1.1l4.8,5.7V59c0,0.6,0.4,1,1,1h32c0.6,0,1-0.4,1-1V45 C60,44.4,59.6,44,59,44z M58,58L58,58H28h-0.1v-7c0-0.2-0.1-0.4-0.2-0.6L24.1,46H58L58,58L58,58z"/><rect width="2" height="2" x="4" y="25"/><rect width="2" height="2" x="8" y="25"/><rect width="18" height="2" x="12" y="25"/><rect width="2" height="2" x="4" y="29"/><rect width="22" height="2" x="8" y="29"/><rect width="2" height="2" x="30" y="49"/><rect width="22" height="2" x="34" y="49"/><rect width="2" height="2" x="30" y="53"/><rect width="2" height="2" x="34" y="53"/><rect width="18" height="2" x="38" y="53"/><rect width="8" height="2" x="42" y="22"/><rect width="10" height="2" x="40" y="26"/><rect width="14" height="2" x="36" y="30"/><rect width="14" height="2" x="36" y="34"/><rect width="2" height="2" x="9" y="54"/><rect width="2" height="2" x="13" y="54"/><rect width="2" height="2" x="17" y="54"/><rect width="2" height="2" x="9" y="50"/><rect width="2" height="2" x="13" y="50"/><rect width="2" height="2" x="9" y="46"/><rect width="2" height="2" x="9" y="42"/><rect width="2" height="2" x="13" y="46"/><rect width="2" height="2" x="17" y="50"/><rect width="2" height="2" x="21" y="54"/></g></g></svg>